%TF.GenerationSoftware,KiCad,Pcbnew,8.0.5*%
%TF.CreationDate,2024-10-15T07:07:36-03:00*%
%TF.ProjectId,GRANAPCBESP32S3V1,4752414e-4150-4434-9245-535033325333,rev?*%
%TF.SameCoordinates,Original*%
%TF.FileFunction,Soldermask,Top*%
%TF.FilePolarity,Negative*%
%FSLAX46Y46*%
G04 Gerber Fmt 4.6, Leading zero omitted, Abs format (unit mm)*
G04 Created by KiCad (PCBNEW 8.0.5) date 2024-10-15 07:07:36*
%MOMM*%
%LPD*%
G01*
G04 APERTURE LIST*
%ADD10C,4.500000*%
%ADD11R,1.700000X1.700000*%
%ADD12O,1.700000X1.700000*%
%ADD13R,2.000000X1.200000*%
%ADD14O,2.000000X1.200000*%
G04 APERTURE END LIST*
D10*
%TO.C,REF3*%
X104500000Y-132000000D03*
%TD*%
D11*
%TO.C,J1*%
X197750000Y-57730000D03*
D12*
X197750000Y-60270000D03*
X197750000Y-62810000D03*
X197750000Y-65350000D03*
X197750000Y-67890000D03*
X197750000Y-70430000D03*
X197750000Y-72970000D03*
X197750000Y-75510000D03*
X197750000Y-78050000D03*
X197750000Y-80590000D03*
X197750000Y-83130000D03*
X197750000Y-85670000D03*
X197750000Y-88210000D03*
X197750000Y-90750000D03*
%TD*%
D10*
%TO.C,REF1*%
X104500000Y-43500000D03*
%TD*%
D13*
%TO.C,U2*%
X139960000Y-57720000D03*
X142500000Y-57720000D03*
D14*
X139960000Y-60260000D03*
X142500000Y-60260000D03*
X139960000Y-62800000D03*
X142500000Y-62800000D03*
X139960000Y-65340000D03*
X142500000Y-65340000D03*
X139960000Y-67880000D03*
X142500000Y-67880000D03*
X139960000Y-70420000D03*
X142500000Y-70420000D03*
X139960000Y-72960000D03*
X142500000Y-72960000D03*
X139960000Y-75500000D03*
X142500000Y-75500000D03*
X139960000Y-78040000D03*
X142500000Y-78040000D03*
X139960000Y-80580000D03*
X142500000Y-80580000D03*
X139960000Y-83120000D03*
X142500000Y-83120000D03*
X139960000Y-85660000D03*
X142500000Y-85660000D03*
X139960000Y-88200000D03*
X142500000Y-88200000D03*
X139960000Y-90740000D03*
X142500000Y-90740000D03*
X139960000Y-93280000D03*
X142500000Y-93280000D03*
X139960000Y-95820000D03*
X142500000Y-95820000D03*
X139960000Y-98360000D03*
X142500000Y-98360000D03*
X139960000Y-100900000D03*
X142500000Y-100900000D03*
X139960000Y-103440000D03*
X142500000Y-103440000D03*
X139956320Y-105977280D03*
X142496320Y-105977280D03*
X139956320Y-108517280D03*
X142496320Y-108517280D03*
X139956320Y-111057280D03*
X142496320Y-111057280D03*
X165360000Y-111060000D03*
X165360000Y-108520000D03*
X165360000Y-105980000D03*
X165360000Y-103440000D03*
X165360000Y-100900000D03*
X165360000Y-98360000D03*
X165360000Y-95820000D03*
X165360000Y-93280000D03*
X165360000Y-90740000D03*
X165360000Y-88200000D03*
X165360000Y-85660000D03*
X165360000Y-83120000D03*
X165360000Y-80580000D03*
X165360000Y-78040000D03*
X165360000Y-75500000D03*
X165360000Y-72960000D03*
X165360000Y-70420000D03*
X165360000Y-67880000D03*
X165360000Y-65340000D03*
X165360000Y-62800000D03*
X165360000Y-60260000D03*
X165360000Y-57720000D03*
%TD*%
D10*
%TO.C,REF4*%
X208000000Y-132000000D03*
%TD*%
D11*
%TO.C,J2*%
X112750000Y-57670000D03*
D12*
X112750000Y-60210000D03*
X112750000Y-62750000D03*
X112750000Y-65290000D03*
X112750000Y-67830000D03*
X112750000Y-70370000D03*
X112750000Y-72910000D03*
X112750000Y-75450000D03*
X112750000Y-77990000D03*
X112750000Y-80530000D03*
X112750000Y-83070000D03*
X112750000Y-85610000D03*
X112750000Y-88150000D03*
X112750000Y-90690000D03*
X112750000Y-93230000D03*
X112750000Y-95770000D03*
X112750000Y-98310000D03*
X112750000Y-100850000D03*
X112750000Y-103390000D03*
X112750000Y-105930000D03*
X112750000Y-108470000D03*
X112750000Y-111010000D03*
%TD*%
D10*
%TO.C,REF2*%
X208000000Y-43500000D03*
%TD*%
M02*
