%TF.GenerationSoftware,KiCad,Pcbnew,8.0.5*%
%TF.CreationDate,2024-10-15T07:07:36-03:00*%
%TF.ProjectId,GRANAPCBESP32S3V1,4752414e-4150-4434-9245-535033325333,rev?*%
%TF.SameCoordinates,Original*%
%TF.FileFunction,Copper,L1,Top*%
%TF.FilePolarity,Positive*%
%FSLAX46Y46*%
G04 Gerber Fmt 4.6, Leading zero omitted, Abs format (unit mm)*
G04 Created by KiCad (PCBNEW 8.0.5) date 2024-10-15 07:07:36*
%MOMM*%
%LPD*%
G01*
G04 APERTURE LIST*
%ADD10C,0.300000*%
%TA.AperFunction,NonConductor*%
%ADD11C,0.300000*%
%TD*%
%TA.AperFunction,ComponentPad*%
%ADD12R,1.700000X1.700000*%
%TD*%
%TA.AperFunction,ComponentPad*%
%ADD13O,1.700000X1.700000*%
%TD*%
%TA.AperFunction,ComponentPad*%
%ADD14R,2.000000X1.200000*%
%TD*%
%TA.AperFunction,ComponentPad*%
%ADD15O,2.000000X1.200000*%
%TD*%
%TA.AperFunction,Conductor*%
%ADD16C,0.200000*%
%TD*%
G04 APERTURE END LIST*
D10*
D11*
X140340225Y-36872257D02*
X140197368Y-36800828D01*
X140197368Y-36800828D02*
X139983082Y-36800828D01*
X139983082Y-36800828D02*
X139768796Y-36872257D01*
X139768796Y-36872257D02*
X139625939Y-37015114D01*
X139625939Y-37015114D02*
X139554510Y-37157971D01*
X139554510Y-37157971D02*
X139483082Y-37443685D01*
X139483082Y-37443685D02*
X139483082Y-37657971D01*
X139483082Y-37657971D02*
X139554510Y-37943685D01*
X139554510Y-37943685D02*
X139625939Y-38086542D01*
X139625939Y-38086542D02*
X139768796Y-38229400D01*
X139768796Y-38229400D02*
X139983082Y-38300828D01*
X139983082Y-38300828D02*
X140125939Y-38300828D01*
X140125939Y-38300828D02*
X140340225Y-38229400D01*
X140340225Y-38229400D02*
X140411653Y-38157971D01*
X140411653Y-38157971D02*
X140411653Y-37657971D01*
X140411653Y-37657971D02*
X140125939Y-37657971D01*
X141054510Y-38300828D02*
X141054510Y-37300828D01*
X141054510Y-37586542D02*
X141125939Y-37443685D01*
X141125939Y-37443685D02*
X141197368Y-37372257D01*
X141197368Y-37372257D02*
X141340225Y-37300828D01*
X141340225Y-37300828D02*
X141483082Y-37300828D01*
X141911653Y-37872257D02*
X142625939Y-37872257D01*
X141768796Y-38300828D02*
X142268796Y-36800828D01*
X142268796Y-36800828D02*
X142768796Y-38300828D01*
X143268795Y-38300828D02*
X143268795Y-36800828D01*
X143268795Y-36800828D02*
X144125938Y-38300828D01*
X144125938Y-38300828D02*
X144125938Y-36800828D01*
X144768796Y-37872257D02*
X145483082Y-37872257D01*
X144625939Y-38300828D02*
X145125939Y-36800828D01*
X145125939Y-36800828D02*
X145625939Y-38300828D01*
X147054510Y-36800828D02*
X147911653Y-36800828D01*
X147483081Y-38300828D02*
X147483081Y-36800828D01*
X148411652Y-38300828D02*
X148411652Y-36800828D01*
X148411652Y-37515114D02*
X149268795Y-37515114D01*
X149268795Y-38300828D02*
X149268795Y-36800828D01*
X149983081Y-37515114D02*
X150483081Y-37515114D01*
X150697367Y-38300828D02*
X149983081Y-38300828D01*
X149983081Y-38300828D02*
X149983081Y-36800828D01*
X149983081Y-36800828D02*
X150697367Y-36800828D01*
X153268796Y-36872257D02*
X153125939Y-36800828D01*
X153125939Y-36800828D02*
X152911653Y-36800828D01*
X152911653Y-36800828D02*
X152697367Y-36872257D01*
X152697367Y-36872257D02*
X152554510Y-37015114D01*
X152554510Y-37015114D02*
X152483081Y-37157971D01*
X152483081Y-37157971D02*
X152411653Y-37443685D01*
X152411653Y-37443685D02*
X152411653Y-37657971D01*
X152411653Y-37657971D02*
X152483081Y-37943685D01*
X152483081Y-37943685D02*
X152554510Y-38086542D01*
X152554510Y-38086542D02*
X152697367Y-38229400D01*
X152697367Y-38229400D02*
X152911653Y-38300828D01*
X152911653Y-38300828D02*
X153054510Y-38300828D01*
X153054510Y-38300828D02*
X153268796Y-38229400D01*
X153268796Y-38229400D02*
X153340224Y-38157971D01*
X153340224Y-38157971D02*
X153340224Y-37657971D01*
X153340224Y-37657971D02*
X153054510Y-37657971D01*
X154840224Y-38300828D02*
X154340224Y-37586542D01*
X153983081Y-38300828D02*
X153983081Y-36800828D01*
X153983081Y-36800828D02*
X154554510Y-36800828D01*
X154554510Y-36800828D02*
X154697367Y-36872257D01*
X154697367Y-36872257D02*
X154768796Y-36943685D01*
X154768796Y-36943685D02*
X154840224Y-37086542D01*
X154840224Y-37086542D02*
X154840224Y-37300828D01*
X154840224Y-37300828D02*
X154768796Y-37443685D01*
X154768796Y-37443685D02*
X154697367Y-37515114D01*
X154697367Y-37515114D02*
X154554510Y-37586542D01*
X154554510Y-37586542D02*
X153983081Y-37586542D01*
X155483081Y-37515114D02*
X155983081Y-37515114D01*
X156197367Y-38300828D02*
X155483081Y-38300828D01*
X155483081Y-38300828D02*
X155483081Y-36800828D01*
X155483081Y-36800828D02*
X156197367Y-36800828D01*
X156840224Y-37515114D02*
X157340224Y-37515114D01*
X157554510Y-38300828D02*
X156840224Y-38300828D01*
X156840224Y-38300828D02*
X156840224Y-36800828D01*
X156840224Y-36800828D02*
X157554510Y-36800828D01*
X158197367Y-38300828D02*
X158197367Y-36800828D01*
X158197367Y-36800828D02*
X159054510Y-38300828D01*
X159054510Y-38300828D02*
X159054510Y-36800828D01*
X160840225Y-37872257D02*
X161554511Y-37872257D01*
X160697368Y-38300828D02*
X161197368Y-36800828D01*
X161197368Y-36800828D02*
X161697368Y-38300828D01*
X162197367Y-38300828D02*
X162197367Y-36800828D01*
X162197367Y-36800828D02*
X163054510Y-38300828D01*
X163054510Y-38300828D02*
X163054510Y-36800828D01*
X163697368Y-37872257D02*
X164411654Y-37872257D01*
X163554511Y-38300828D02*
X164054511Y-36800828D01*
X164054511Y-36800828D02*
X164554511Y-38300828D01*
X165911653Y-38300828D02*
X165411653Y-37586542D01*
X165054510Y-38300828D02*
X165054510Y-36800828D01*
X165054510Y-36800828D02*
X165625939Y-36800828D01*
X165625939Y-36800828D02*
X165768796Y-36872257D01*
X165768796Y-36872257D02*
X165840225Y-36943685D01*
X165840225Y-36943685D02*
X165911653Y-37086542D01*
X165911653Y-37086542D02*
X165911653Y-37300828D01*
X165911653Y-37300828D02*
X165840225Y-37443685D01*
X165840225Y-37443685D02*
X165768796Y-37515114D01*
X165768796Y-37515114D02*
X165625939Y-37586542D01*
X165625939Y-37586542D02*
X165054510Y-37586542D01*
X167411653Y-38157971D02*
X167340225Y-38229400D01*
X167340225Y-38229400D02*
X167125939Y-38300828D01*
X167125939Y-38300828D02*
X166983082Y-38300828D01*
X166983082Y-38300828D02*
X166768796Y-38229400D01*
X166768796Y-38229400D02*
X166625939Y-38086542D01*
X166625939Y-38086542D02*
X166554510Y-37943685D01*
X166554510Y-37943685D02*
X166483082Y-37657971D01*
X166483082Y-37657971D02*
X166483082Y-37443685D01*
X166483082Y-37443685D02*
X166554510Y-37157971D01*
X166554510Y-37157971D02*
X166625939Y-37015114D01*
X166625939Y-37015114D02*
X166768796Y-36872257D01*
X166768796Y-36872257D02*
X166983082Y-36800828D01*
X166983082Y-36800828D02*
X167125939Y-36800828D01*
X167125939Y-36800828D02*
X167340225Y-36872257D01*
X167340225Y-36872257D02*
X167411653Y-36943685D01*
X168054510Y-38300828D02*
X168054510Y-36800828D01*
X168054510Y-37515114D02*
X168911653Y-37515114D01*
X168911653Y-38300828D02*
X168911653Y-36800828D01*
X169911654Y-37586542D02*
X169911654Y-38300828D01*
X169411654Y-36800828D02*
X169911654Y-37586542D01*
X169911654Y-37586542D02*
X170411654Y-36800828D01*
X172054510Y-38300828D02*
X172054510Y-36800828D01*
X172054510Y-36800828D02*
X172625939Y-36800828D01*
X172625939Y-36800828D02*
X172768796Y-36872257D01*
X172768796Y-36872257D02*
X172840225Y-36943685D01*
X172840225Y-36943685D02*
X172911653Y-37086542D01*
X172911653Y-37086542D02*
X172911653Y-37300828D01*
X172911653Y-37300828D02*
X172840225Y-37443685D01*
X172840225Y-37443685D02*
X172768796Y-37515114D01*
X172768796Y-37515114D02*
X172625939Y-37586542D01*
X172625939Y-37586542D02*
X172054510Y-37586542D01*
X174411653Y-38300828D02*
X173911653Y-37586542D01*
X173554510Y-38300828D02*
X173554510Y-36800828D01*
X173554510Y-36800828D02*
X174125939Y-36800828D01*
X174125939Y-36800828D02*
X174268796Y-36872257D01*
X174268796Y-36872257D02*
X174340225Y-36943685D01*
X174340225Y-36943685D02*
X174411653Y-37086542D01*
X174411653Y-37086542D02*
X174411653Y-37300828D01*
X174411653Y-37300828D02*
X174340225Y-37443685D01*
X174340225Y-37443685D02*
X174268796Y-37515114D01*
X174268796Y-37515114D02*
X174125939Y-37586542D01*
X174125939Y-37586542D02*
X173554510Y-37586542D01*
X175340225Y-36800828D02*
X175625939Y-36800828D01*
X175625939Y-36800828D02*
X175768796Y-36872257D01*
X175768796Y-36872257D02*
X175911653Y-37015114D01*
X175911653Y-37015114D02*
X175983082Y-37300828D01*
X175983082Y-37300828D02*
X175983082Y-37800828D01*
X175983082Y-37800828D02*
X175911653Y-38086542D01*
X175911653Y-38086542D02*
X175768796Y-38229400D01*
X175768796Y-38229400D02*
X175625939Y-38300828D01*
X175625939Y-38300828D02*
X175340225Y-38300828D01*
X175340225Y-38300828D02*
X175197368Y-38229400D01*
X175197368Y-38229400D02*
X175054510Y-38086542D01*
X175054510Y-38086542D02*
X174983082Y-37800828D01*
X174983082Y-37800828D02*
X174983082Y-37300828D01*
X174983082Y-37300828D02*
X175054510Y-37015114D01*
X175054510Y-37015114D02*
X175197368Y-36872257D01*
X175197368Y-36872257D02*
X175340225Y-36800828D01*
X177054511Y-36800828D02*
X177054511Y-37872257D01*
X177054511Y-37872257D02*
X176983082Y-38086542D01*
X176983082Y-38086542D02*
X176840225Y-38229400D01*
X176840225Y-38229400D02*
X176625939Y-38300828D01*
X176625939Y-38300828D02*
X176483082Y-38300828D01*
X177768796Y-37515114D02*
X178268796Y-37515114D01*
X178483082Y-38300828D02*
X177768796Y-38300828D01*
X177768796Y-38300828D02*
X177768796Y-36800828D01*
X177768796Y-36800828D02*
X178483082Y-36800828D01*
X179983082Y-38157971D02*
X179911654Y-38229400D01*
X179911654Y-38229400D02*
X179697368Y-38300828D01*
X179697368Y-38300828D02*
X179554511Y-38300828D01*
X179554511Y-38300828D02*
X179340225Y-38229400D01*
X179340225Y-38229400D02*
X179197368Y-38086542D01*
X179197368Y-38086542D02*
X179125939Y-37943685D01*
X179125939Y-37943685D02*
X179054511Y-37657971D01*
X179054511Y-37657971D02*
X179054511Y-37443685D01*
X179054511Y-37443685D02*
X179125939Y-37157971D01*
X179125939Y-37157971D02*
X179197368Y-37015114D01*
X179197368Y-37015114D02*
X179340225Y-36872257D01*
X179340225Y-36872257D02*
X179554511Y-36800828D01*
X179554511Y-36800828D02*
X179697368Y-36800828D01*
X179697368Y-36800828D02*
X179911654Y-36872257D01*
X179911654Y-36872257D02*
X179983082Y-36943685D01*
X180411654Y-36800828D02*
X181268797Y-36800828D01*
X180840225Y-38300828D02*
X180840225Y-36800828D01*
D12*
%TO.P,J1,1,Pin_1*%
%TO.N,Net-(J1-Pin_1)*%
X197750000Y-57730000D03*
D13*
%TO.P,J1,2,Pin_2*%
%TO.N,Net-(J1-Pin_2)*%
X197750000Y-60270000D03*
%TO.P,J1,3,Pin_3*%
%TO.N,Net-(J1-Pin_3)*%
X197750000Y-62810000D03*
%TO.P,J1,4,Pin_4*%
%TO.N,Net-(J1-Pin_4)*%
X197750000Y-65350000D03*
%TO.P,J1,5,Pin_5*%
%TO.N,Net-(J1-Pin_5)*%
X197750000Y-67890000D03*
%TO.P,J1,6,Pin_6*%
%TO.N,Net-(J1-Pin_12)*%
X197750000Y-70430000D03*
%TO.P,J1,7,Pin_7*%
%TO.N,Net-(J1-Pin_10)*%
X197750000Y-72970000D03*
%TO.P,J1,8,Pin_8*%
%TO.N,Net-(J1-Pin_1)*%
X197750000Y-75510000D03*
%TO.P,J1,9,Pin_9*%
%TO.N,unconnected-(J1-Pin_9-Pad9)*%
X197750000Y-78050000D03*
%TO.P,J1,10,Pin_10*%
%TO.N,Net-(J1-Pin_10)*%
X197750000Y-80590000D03*
%TO.P,J1,11,Pin_11*%
%TO.N,Net-(J1-Pin_11)*%
X197750000Y-83130000D03*
%TO.P,J1,12,Pin_12*%
%TO.N,Net-(J1-Pin_12)*%
X197750000Y-85670000D03*
%TO.P,J1,13,Pin_13*%
%TO.N,Net-(J1-Pin_13)*%
X197750000Y-88210000D03*
%TO.P,J1,14,Pin_14*%
%TO.N,unconnected-(J1-Pin_14-Pad14)*%
X197750000Y-90750000D03*
%TD*%
D14*
%TO.P,U2,1,3V3*%
%TO.N,Net-(J1-Pin_1)*%
X139960000Y-57720000D03*
X142500000Y-57720000D03*
D15*
%TO.P,U2,2,3V3*%
X139960000Y-60260000D03*
X142500000Y-60260000D03*
%TO.P,U2,3,CHIP_PU*%
%TO.N,Net-(J2-Pin_3)*%
X139960000Y-62800000D03*
X142500000Y-62800000D03*
%TO.P,U2,4,GPIO4/ADC1_CH3*%
%TO.N,Net-(J2-Pin_4)*%
X139960000Y-65340000D03*
X142500000Y-65340000D03*
%TO.P,U2,5,GPIO5/ADC1_CH4*%
%TO.N,Net-(J2-Pin_5)*%
X139960000Y-67880000D03*
X142500000Y-67880000D03*
%TO.P,U2,6,GPIO6/ADC1_CH5*%
%TO.N,Net-(J2-Pin_6)*%
X139960000Y-70420000D03*
X142500000Y-70420000D03*
%TO.P,U2,7,GPIO7/ADC1_CH6*%
%TO.N,Net-(J2-Pin_7)*%
X139960000Y-72960000D03*
X142500000Y-72960000D03*
%TO.P,U2,8,GPIO15/ADC2_CH4/32K_P*%
%TO.N,Net-(J2-Pin_8)*%
X139960000Y-75500000D03*
X142500000Y-75500000D03*
%TO.P,U2,9,GPIO16/ADC2_CH5/32K_N*%
%TO.N,Net-(J2-Pin_9)*%
X139960000Y-78040000D03*
X142500000Y-78040000D03*
%TO.P,U2,10,GPIO17/ADC2_CH6*%
%TO.N,Net-(J2-Pin_10)*%
X139960000Y-80580000D03*
X142500000Y-80580000D03*
%TO.P,U2,11,GPIO18/ADC2_CH7*%
%TO.N,Net-(J2-Pin_11)*%
X139960000Y-83120000D03*
X142500000Y-83120000D03*
%TO.P,U2,12,GPIO8/ADC1_CH7*%
%TO.N,Net-(J2-Pin_12)*%
X139960000Y-85660000D03*
X142500000Y-85660000D03*
%TO.P,U2,13,GPIO3/ADC1_CH2*%
%TO.N,Net-(J2-Pin_13)*%
X139960000Y-88200000D03*
X142500000Y-88200000D03*
%TO.P,U2,14,GPIO46*%
%TO.N,Net-(J2-Pin_14)*%
X139960000Y-90740000D03*
X142500000Y-90740000D03*
%TO.P,U2,15,GPIO9/ADC1_CH8*%
%TO.N,Net-(J2-Pin_15)*%
X139960000Y-93280000D03*
X142500000Y-93280000D03*
%TO.P,U2,16,GPIO10/ADC1_CH9*%
%TO.N,Net-(J2-Pin_16)*%
X139960000Y-95820000D03*
X142500000Y-95820000D03*
%TO.P,U2,17,GPIO11/ADC2_CH0*%
%TO.N,Net-(J2-Pin_17)*%
X139960000Y-98360000D03*
X142500000Y-98360000D03*
%TO.P,U2,18,GPIO12/ADC2_CH1*%
%TO.N,Net-(J2-Pin_18)*%
X139960000Y-100900000D03*
X142500000Y-100900000D03*
%TO.P,U2,19,GPIO13/ADC2_CH2*%
%TO.N,Net-(J2-Pin_19)*%
X139960000Y-103440000D03*
X142500000Y-103440000D03*
%TO.P,U2,20,GPIO14/ADC2_CH3*%
%TO.N,Net-(J2-Pin_20)*%
X139956320Y-105977280D03*
X142496320Y-105977280D03*
%TO.P,U2,21,5V*%
%TO.N,Net-(J2-Pin_21)*%
X139956320Y-108517280D03*
X142496320Y-108517280D03*
%TO.P,U2,22,GND*%
%TO.N,Net-(J1-Pin_2)*%
X139956320Y-111057280D03*
X142496320Y-111057280D03*
%TO.P,U2,23,GND*%
X165360000Y-111060000D03*
%TO.P,U2,24,GND*%
X165360000Y-108520000D03*
%TO.P,U2,25,GPIO19/USB_D-*%
%TO.N,Net-(P1-D+)*%
X165360000Y-105980000D03*
%TO.P,U2,26,GPIO20/USB_D+*%
%TO.N,Net-(P1-CC)*%
X165360000Y-103440000D03*
%TO.P,U2,27,GPIO21*%
%TO.N,unconnected-(U2-GPIO21-Pad27)*%
X165360000Y-100900000D03*
%TO.P,U2,28,GPIO47*%
%TO.N,unconnected-(U2-GPIO47-Pad28)*%
X165360000Y-98360000D03*
%TO.P,U2,29,GPIO48*%
%TO.N,unconnected-(U2-GPIO48-Pad29)*%
X165360000Y-95820000D03*
%TO.P,U2,30,GPIO45*%
%TO.N,unconnected-(U2-GPIO45-Pad30)*%
X165360000Y-93280000D03*
%TO.P,U2,31,GPIO0*%
%TO.N,unconnected-(U2-GPIO0-Pad31)*%
X165360000Y-90740000D03*
%TO.P,U2,32,GPIO35*%
%TO.N,unconnected-(U2-GPIO35-Pad32)*%
X165360000Y-88200000D03*
%TO.P,U2,33,GPIO36*%
%TO.N,unconnected-(U2-GPIO36-Pad33)*%
X165360000Y-85660000D03*
%TO.P,U2,34,GPIO37*%
%TO.N,unconnected-(U2-GPIO37-Pad34)*%
X165360000Y-83120000D03*
%TO.P,U2,35,GPIO38*%
%TO.N,Net-(J1-Pin_11)*%
X165360000Y-80580000D03*
%TO.P,U2,36,GPIO39/MTCK*%
%TO.N,Net-(J1-Pin_13)*%
X165360000Y-78040000D03*
%TO.P,U2,37,GPIO40/MTDO*%
%TO.N,Net-(J1-Pin_10)*%
X165360000Y-75500000D03*
%TO.P,U2,38,GPIO41/MTDI*%
%TO.N,Net-(J1-Pin_12)*%
X165360000Y-72960000D03*
%TO.P,U2,39,GPIO42/MTMS*%
%TO.N,Net-(J1-Pin_5)*%
X165360000Y-70420000D03*
%TO.P,U2,40,GPIO2/ADC1_CH1*%
%TO.N,Net-(J1-Pin_4)*%
X165360000Y-67880000D03*
%TO.P,U2,41,GPIO1/ADC1_CH0*%
%TO.N,Net-(J1-Pin_3)*%
X165360000Y-65340000D03*
%TO.P,U2,42,GPIO44/U0RXD*%
%TO.N,unconnected-(U2-GPIO44{slash}U0RXD-Pad42)*%
X165360000Y-62800000D03*
%TO.P,U2,43,GPIO43/U0TXD*%
%TO.N,unconnected-(U2-GPIO43{slash}U0TXD-Pad43)*%
X165360000Y-60260000D03*
%TO.P,U2,44,GND*%
%TO.N,Net-(J1-Pin_2)*%
X165360000Y-57720000D03*
%TD*%
D12*
%TO.P,J2,1,Pin_1*%
%TO.N,Net-(J1-Pin_2)*%
X112750000Y-57670000D03*
D13*
%TO.P,J2,2,Pin_2*%
%TO.N,Net-(J1-Pin_1)*%
X112750000Y-60210000D03*
%TO.P,J2,3,Pin_3*%
%TO.N,Net-(J2-Pin_3)*%
X112750000Y-62750000D03*
%TO.P,J2,4,Pin_4*%
%TO.N,Net-(J2-Pin_4)*%
X112750000Y-65290000D03*
%TO.P,J2,5,Pin_5*%
%TO.N,Net-(J2-Pin_5)*%
X112750000Y-67830000D03*
%TO.P,J2,6,Pin_6*%
%TO.N,Net-(J2-Pin_6)*%
X112750000Y-70370000D03*
%TO.P,J2,7,Pin_7*%
%TO.N,Net-(J2-Pin_7)*%
X112750000Y-72910000D03*
%TO.P,J2,8,Pin_8*%
%TO.N,Net-(J2-Pin_8)*%
X112750000Y-75450000D03*
%TO.P,J2,9,Pin_9*%
%TO.N,Net-(J2-Pin_9)*%
X112750000Y-77990000D03*
%TO.P,J2,10,Pin_10*%
%TO.N,Net-(J2-Pin_10)*%
X112750000Y-80530000D03*
%TO.P,J2,11,Pin_11*%
%TO.N,Net-(J2-Pin_11)*%
X112750000Y-83070000D03*
%TO.P,J2,12,Pin_12*%
%TO.N,Net-(J2-Pin_12)*%
X112750000Y-85610000D03*
%TO.P,J2,13,Pin_13*%
%TO.N,Net-(J2-Pin_13)*%
X112750000Y-88150000D03*
%TO.P,J2,14,Pin_14*%
%TO.N,Net-(J2-Pin_14)*%
X112750000Y-90690000D03*
%TO.P,J2,15,Pin_15*%
%TO.N,Net-(J2-Pin_15)*%
X112750000Y-93230000D03*
%TO.P,J2,16,Pin_16*%
%TO.N,Net-(J2-Pin_16)*%
X112750000Y-95770000D03*
%TO.P,J2,17,Pin_17*%
%TO.N,Net-(J2-Pin_17)*%
X112750000Y-98310000D03*
%TO.P,J2,18,Pin_18*%
%TO.N,Net-(J2-Pin_18)*%
X112750000Y-100850000D03*
%TO.P,J2,19,Pin_19*%
%TO.N,Net-(J2-Pin_19)*%
X112750000Y-103390000D03*
%TO.P,J2,20,Pin_20*%
%TO.N,Net-(J2-Pin_20)*%
X112750000Y-105930000D03*
%TO.P,J2,21,Pin_21*%
%TO.N,Net-(J2-Pin_21)*%
X112750000Y-108470000D03*
%TO.P,J2,22,Pin_22*%
%TO.N,Net-(J1-Pin_2)*%
X112750000Y-111010000D03*
%TD*%
D16*
%TO.N,Net-(J1-Pin_12)*%
X197750000Y-70430000D02*
X199250000Y-71930000D01*
X199250000Y-71930000D02*
X199250000Y-74200000D01*
X199250000Y-74200000D02*
X196900000Y-74200000D01*
X196900000Y-74200000D02*
X196250000Y-74850000D01*
X196250000Y-74850000D02*
X196250000Y-79300000D01*
X196250000Y-79300000D02*
X199300000Y-79300000D01*
X199300000Y-79300000D02*
X199500000Y-79500000D01*
X196150000Y-81850000D02*
X196000000Y-82000000D01*
X199500000Y-79500000D02*
X199500000Y-81960000D01*
X199500000Y-81960000D02*
X199390000Y-81850000D01*
X196000000Y-82000000D02*
X196000000Y-83920000D01*
X199390000Y-81850000D02*
X196150000Y-81850000D01*
X196000000Y-83920000D02*
X197750000Y-85670000D01*
%TO.N,Net-(J1-Pin_11)*%
X197750000Y-83130000D02*
X199750000Y-85130000D01*
X199750000Y-85130000D02*
X199750000Y-92370000D01*
X197620000Y-94500000D02*
X162750000Y-94500000D01*
X199750000Y-92370000D02*
X197620000Y-94500000D01*
X162750000Y-94500000D02*
X162750000Y-83190000D01*
X162750000Y-83190000D02*
X165360000Y-80580000D01*
%TO.N,Net-(J1-Pin_2)*%
X161890000Y-61610000D02*
X161780000Y-61500000D01*
X161780000Y-61500000D02*
X111250000Y-61500000D01*
X111250000Y-61500000D02*
X111250000Y-59170000D01*
X111250000Y-59170000D02*
X112750000Y-57670000D01*
%TO.N,Net-(J1-Pin_10)*%
X197750000Y-80590000D02*
X195250000Y-80590000D01*
X195250000Y-80590000D02*
X195250000Y-74950000D01*
X195250000Y-74950000D02*
X197230000Y-72970000D01*
X197230000Y-72970000D02*
X197750000Y-72970000D01*
%TO.N,Net-(J1-Pin_1)*%
X197750000Y-75510000D02*
X199490000Y-75510000D01*
X199490000Y-75510000D02*
X201500000Y-73500000D01*
X201500000Y-73500000D02*
X201500000Y-61480000D01*
X201500000Y-61480000D02*
X197750000Y-57730000D01*
%TO.N,Net-(J1-Pin_2)*%
X165360000Y-108520000D02*
X161850000Y-105010000D01*
X142496320Y-111057280D02*
X165357280Y-111057280D01*
X195270000Y-60270000D02*
X193000000Y-58000000D01*
X161850000Y-105010000D02*
X161850000Y-61650000D01*
X165640000Y-58000000D02*
X165360000Y-57720000D01*
X142496320Y-111057280D02*
X139956320Y-111057280D01*
X112750000Y-111010000D02*
X139909040Y-111010000D01*
X193000000Y-58000000D02*
X165640000Y-58000000D01*
X165360000Y-57720000D02*
X162280000Y-57720000D01*
X161850000Y-61650000D02*
X161890000Y-61610000D01*
X139909040Y-111010000D02*
X139956320Y-111057280D01*
X161890000Y-58110000D02*
X161890000Y-61610000D01*
X197750000Y-60270000D02*
X195270000Y-60270000D01*
X165357280Y-111057280D02*
X165360000Y-111060000D01*
X162280000Y-57720000D02*
X161890000Y-58110000D01*
X165360000Y-111060000D02*
X165360000Y-108520000D01*
%TO.N,Net-(J2-Pin_6)*%
X112800000Y-70420000D02*
X112750000Y-70370000D01*
X142500000Y-70420000D02*
X112800000Y-70420000D01*
%TO.N,Net-(J2-Pin_20)*%
X139909040Y-105930000D02*
X139956320Y-105977280D01*
X112750000Y-105930000D02*
X139909040Y-105930000D01*
X142496320Y-105977280D02*
X139956320Y-105977280D01*
%TO.N,Net-(J2-Pin_5)*%
X142500000Y-67880000D02*
X112800000Y-67880000D01*
X112800000Y-67880000D02*
X112750000Y-67830000D01*
%TO.N,Net-(J2-Pin_3)*%
X112800000Y-62800000D02*
X112750000Y-62750000D01*
X142500000Y-62800000D02*
X112800000Y-62800000D01*
%TO.N,Net-(J2-Pin_17)*%
X142500000Y-98360000D02*
X139960000Y-98360000D01*
X139910000Y-98310000D02*
X139960000Y-98360000D01*
X112750000Y-98310000D02*
X139910000Y-98310000D01*
%TO.N,Net-(J2-Pin_13)*%
X112750000Y-88150000D02*
X139910000Y-88150000D01*
X139910000Y-88150000D02*
X139960000Y-88200000D01*
X142500000Y-88200000D02*
X139960000Y-88200000D01*
%TO.N,Net-(J1-Pin_13)*%
X197750000Y-88210000D02*
X175530000Y-88210000D01*
X175530000Y-88210000D02*
X165360000Y-78040000D01*
%TO.N,Net-(J2-Pin_18)*%
X142500000Y-100900000D02*
X139960000Y-100900000D01*
X139910000Y-100850000D02*
X139960000Y-100900000D01*
X112750000Y-100850000D02*
X139910000Y-100850000D01*
%TO.N,Net-(J1-Pin_12)*%
X196900000Y-71280000D02*
X167040000Y-71280000D01*
X167040000Y-71280000D02*
X165360000Y-72960000D01*
X197750000Y-70430000D02*
X196900000Y-71280000D01*
%TO.N,Net-(J1-Pin_1)*%
X142745000Y-57965000D02*
X142500000Y-57720000D01*
X139960000Y-57720000D02*
X139960000Y-60260000D01*
X196020000Y-56000000D02*
X144220000Y-56000000D01*
X142500000Y-57720000D02*
X142500000Y-60260000D01*
X197750000Y-57730000D02*
X196020000Y-56000000D01*
X144220000Y-56000000D02*
X142500000Y-57720000D01*
X142500000Y-60260000D02*
X112800000Y-60260000D01*
X112800000Y-60260000D02*
X112750000Y-60210000D01*
X143375000Y-57965000D02*
X142745000Y-57965000D01*
%TO.N,Net-(J1-Pin_5)*%
X195220000Y-70420000D02*
X197750000Y-67890000D01*
X165360000Y-70420000D02*
X195220000Y-70420000D01*
%TO.N,Net-(J2-Pin_14)*%
X139910000Y-90690000D02*
X139960000Y-90740000D01*
X142500000Y-90740000D02*
X139960000Y-90740000D01*
X112750000Y-90690000D02*
X139910000Y-90690000D01*
%TO.N,Net-(J2-Pin_21)*%
X139909040Y-108470000D02*
X139956320Y-108517280D01*
X112750000Y-108470000D02*
X139909040Y-108470000D01*
X142496320Y-108517280D02*
X139956320Y-108517280D01*
%TO.N,Net-(J2-Pin_4)*%
X142500000Y-65340000D02*
X112800000Y-65340000D01*
X112800000Y-65340000D02*
X112750000Y-65290000D01*
%TO.N,Net-(J1-Pin_4)*%
X195220000Y-67880000D02*
X197750000Y-65350000D01*
X165360000Y-67880000D02*
X195220000Y-67880000D01*
%TO.N,Net-(J2-Pin_10)*%
X142500000Y-80580000D02*
X139960000Y-80580000D01*
X112800000Y-80580000D02*
X112750000Y-80530000D01*
X139960000Y-80580000D02*
X112800000Y-80580000D01*
%TO.N,Net-(J2-Pin_11)*%
X142500000Y-83120000D02*
X139960000Y-83120000D01*
X139910000Y-83070000D02*
X139960000Y-83120000D01*
X112750000Y-83070000D02*
X139910000Y-83070000D01*
%TO.N,Net-(J2-Pin_12)*%
X112800000Y-85660000D02*
X112750000Y-85610000D01*
X142500000Y-85660000D02*
X139960000Y-85660000D01*
X139960000Y-85660000D02*
X112800000Y-85660000D01*
%TO.N,Net-(J2-Pin_15)*%
X112750000Y-93230000D02*
X139910000Y-93230000D01*
X142500000Y-93280000D02*
X139960000Y-93280000D01*
X139910000Y-93230000D02*
X139960000Y-93280000D01*
%TO.N,Net-(J2-Pin_7)*%
X139910000Y-72910000D02*
X139960000Y-72960000D01*
X142500000Y-72960000D02*
X139960000Y-72960000D01*
X112750000Y-72910000D02*
X139910000Y-72910000D01*
%TO.N,unconnected-(U2-GPIO44{slash}U0RXD-Pad42)*%
X165250000Y-62690000D02*
X165250000Y-62470000D01*
X165360000Y-62800000D02*
X165360000Y-62400000D01*
%TO.N,Net-(J1-Pin_10)*%
X195250000Y-72970000D02*
X192720000Y-75500000D01*
X197750000Y-72970000D02*
X195250000Y-72970000D01*
X192720000Y-75500000D02*
X165360000Y-75500000D01*
%TO.N,Net-(J1-Pin_3)*%
X165360000Y-65340000D02*
X195220000Y-65340000D01*
X195220000Y-65340000D02*
X197750000Y-62810000D01*
%TO.N,Net-(J2-Pin_19)*%
X142500000Y-103440000D02*
X139960000Y-103440000D01*
X139960000Y-103440000D02*
X112800000Y-103440000D01*
X112800000Y-103440000D02*
X112750000Y-103390000D01*
%TO.N,Net-(J2-Pin_9)*%
X112750000Y-77990000D02*
X139910000Y-77990000D01*
X139910000Y-77990000D02*
X139960000Y-78040000D01*
X142500000Y-78040000D02*
X139960000Y-78040000D01*
%TO.N,Net-(J2-Pin_16)*%
X142500000Y-95820000D02*
X139960000Y-95820000D01*
X139910000Y-95770000D02*
X139960000Y-95820000D01*
X112750000Y-95770000D02*
X139910000Y-95770000D01*
%TO.N,Net-(J2-Pin_8)*%
X112800000Y-75500000D02*
X112750000Y-75450000D01*
X142500000Y-75500000D02*
X139960000Y-75500000D01*
X139960000Y-75500000D02*
X112800000Y-75500000D01*
%TO.N,unconnected-(J1-Pin_9-Pad9)*%
X198170000Y-78050000D02*
X198250000Y-77970000D01*
%TD*%
M02*
